<svg width="262" height="10" viewBox="0 0 262 10" fill="none" xmlns="http://www.w3.org/2000/svg">
<path d="M124.975 3.4165L2.24319 3.41651C1.47933 3.41651 0.859436 2.79631 0.859436 2.03207C0.859436 1.26783 1.47933 0.647636 2.24319 0.647636L124.975 0.647633C125.739 0.647633 126.359 1.26783 126.359 2.03207C126.359 2.79631 125.739 3.4165 124.975 3.4165Z" fill="#B8181E"/>
<path d="M259.757 3.4165L137.025 3.4165C136.261 3.4165 135.641 2.79631 135.641 2.03207C135.641 1.26783 136.261 0.647633 137.025 0.647633L259.757 0.647629C260.521 0.647629 261.141 1.26782 261.141 2.03206C261.141 2.7963 260.521 3.4165 259.757 3.4165Z" fill="#B8181E"/>
<path d="M130.998 9.60244C130.626 9.60244 130.266 9.4504 130.006 9.18632L123.979 2.99637C123.447 2.4482 123.459 1.57192 124.003 1.03976C124.551 0.507589 125.427 0.519591 125.959 1.06376L130.994 6.23339L136.029 1.06376C136.561 0.51559 137.437 0.503588 137.985 1.03976C138.533 1.57192 138.545 2.4482 138.009 2.99637L131.982 9.18632C131.722 9.4544 131.366 9.60244 130.99 9.60244H130.998Z" fill="#B8181E"/>
</svg>
